<svg viewBox="0 0 770.9 535.8">
<path id="altinhos2_1_" fill="#D8BB36" stroke="#000000" stroke-miterlimit="10" d="M751.6,18.4c0,0-0.1-4.6-1.9-6.6
	c-1.8-2-4.2-5.5-10.3-6.5c-3.5-0.6-5.5,1-6.5,2.5c-0.8,1.2-3.1,3.3-3.1,3.3s-2.4-3.7-5.4-7.5c-1.1-1.4-5-2.6-6.5-3
	c-0.7-0.2-2-0.2-3.1-0.1c-1.2,0-4,1.3-4,1.3s-3.8,3.3-4.7,4.4c-1.5,1.8-1.8,3.2-2.3,3.3c-0.8,0-3.6-3.6-7.6-4.6s-8.2-1-8.2-1
	s-5.1,0.9-7.4,2.9s-4.5,11.6-4.5,11.6s-1.4-1-2.6-1.8c-0.7-0.5-4.1-1.7-6.1-1.9c-2.3-0.3-4.5,0.1-4.5,0.1s-2.6,0.4-8.1,3.7
	s-5.4,7.5-5.4,7.5l0.2,6.6l0.9,5.8c0,0-7.1,1.2-8.1,1.9c-0.8,0.6-2.9,1.4-4.1,3.1c-1.8,2.5-3.2,5.8-3.2,5.8l-1.1,4.2V58l1.8,3.7
	l3,3.7l1.4,1.8l-3.8,1.1c0,0-8.9,7.5-9.1,14.2s0,5.9,0,5.9s0.9,5.2,1.6,6.2s7.7,9.8,7.7,9.8l-6,6.1c0,0-4,6.6-3.5,12.1
	c0.5,5.5,1.2,7.6,1.2,7.6l2.9,3.9l3.8,4.4l1.3,1.2L631,145c0,0-4.9,9-4.6,13.4c0.1,2.7,1.4,5.9,2.4,8.1c0.6,1.4,2.3,3.4,2.3,3.4
	l5.2,4.6l-1.2,1.8l-3.2,4.1c0,0-2.5,4.3-3.1,6.5c-0.5,1.7-1,3.4-1.1,4.6c-0.2,2.8,1.2,7.6,1.2,7.6s1.4,2.6,2.9,5.1
	c1.5,2.5,4.7,6.4,4.7,6.4s-6.5,3.7-6.9,4.2s-5.6,4.1-6.9,7.9s-2,9.1-2,9.1v1.9c0,0,0.2,3.1,1,5s3.1,6.5,3.1,6.5s-3.5,0-6.9,0.2
	c-3,0.1-5.7,0.6-6.4,1c-0.7,0.4-3.6,1.6-6.3,3.5c-2.8,2-5.8,4.6-7,7c-2.2,4.8-2.8,11.2-2.8,11.2s-1.7-1.2-3.5-2.5
	c-0.8-0.5-1.6-1.1-2.3-1.5c-1.3-0.8-4.5-1.9-6.4-2.3c-3.5-0.8-8.7-1.8-12.6-0.3c-5.9,2.2-9,6-9,6l-3.3,3.5c0,0-0.8-2.5-4.1-6.4
	c-1.7-2-4.4-4-6.7-5.5c-2.1-1.4-5.4-2.6-7.5-2.9c-3.1-0.3-7.4-0.6-10.3,0.3c-4.9,1.5-9.9,7.6-9.9,7.6s-2.1-2.4-4.1-4.8
	c-1.7-1.9-5.3-5.2-7.3-6.2c-2.5-1.2-6.1-2.5-10-2.6c-3.6-0.1-7.2,0.9-9.7,1.9c-2.4,0.9-5.6,3.7-5.6,3.7l-4.3,3.9
	c0,0-2.4-3.6-4.9-6.1c-0.9-0.9-5.5-3-7.3-3.7c-1.7-0.6-3.4-1.2-4.8-1.6c-1.3-0.4-4.9-0.2-6.7,0.2c-2,0.5-4.5,1.2-7.1,2.5
	c-5,2.5-7.9,7.9-7.9,7.9s-5.1-4.6-7.1-6.6s-8.6-4.1-12.9-3.9s-7,0.2-12.6,3.8c-5.6,3.5-7.2,6.6-7.2,6.6s-3.6-6-10.9-9.1
	c-1.9-0.8-3.5-1.3-4.9-1.6c-3.7-0.8-7.6-0.1-10.9,1.3c-1.5,0.6-3.2,1.5-5,3c-5.6,4.5-6.6,7.5-6.6,7.5s-2.5-6.9-12-8.7
	c-1.5-0.3-2.6-0.5-3.6-0.7c-5.1-0.9-9.3,1-10.5,1.5c-1.2,0.5-2.4,1.2-3.6,2.1c-4.6,3.6-7.6,8-7.6,8s-3-2.7-5.5-4.6
	c-1.2-0.9-5.9-2.8-8.5-3.5c-1.9-0.5-4-0.9-6-0.8c-4.8,0.1-11.4,3.6-11.4,3.6s-5.1,4.4-6.5,6.4c-1.4,2-0.7,1.8-0.7,1.8
	s-6.2-6.8-15.5-6.7s-14.7,5.9-14.7,5.9s-3.1,3.8-4.3,6.1s-2.2,6.4-2.2,6.4s-8.8-3.9-12.8-3.7s-6.9,1.8-7.6,2.1
	c-0.5,0.3-4.7,2.7-7.4,5.1c-1.1,1-3.4,5-3.9,5.9c-0.5,1-1,1.9-1.2,2.6c-0.4,1.4-0.5,3.2-0.5,3.2s-3.2-2-5.8-3.3
	c-1.4-0.7-5.5-1.1-7.9-0.9c-1.8,0.2-3.8,0.4-5.6,0.9s-7.2,4.2-8.6,5.4c-2.5,2.3-4.7,4.8-5.4,7.5c-1.1,4.1-1.4,7.6-1.4,7.6l-0.4,1.6
	c0,0-8.5-2.6-11.1-2.3s-10.1,1.2-14.6,5.9c-1.7,1.8-3.1,3.7-4,5.3c-1.5,2.6-1.7,9.2-1.7,9.2v6.1c0,0-2.5-0.8-4.5-1.3
	c-1-0.2-4.4,0-6.2,0.4c-3.2,0.8-7.4,2.2-8.8,3.4c-1,1-2.7,2.8-4.2,4.4c-1.5,1.7-3.9,6.6-3.9,6.6l-1.3,4c0,0-0.1,4,0.6,6.1
	s1.4,4,1.4,4l0.3,1.9l-1.8,0.3c0,0-8-0.8-13,3.1s-6,6-6,6s-3.4,6.8-3.4,8.8c0,1,0.2,3.4,0.4,5.6s2.1,6.9,2.1,6.9l-5.2,0.1
	c0,0-3.8,1.1-6.8,2.3c-1.6,0.6-5.9,4.7-7.2,6.3c-1.2,1.5-2.9,4.9-3.3,6c-0.6,1.8-1.2,4.4-1,7.2c0.1,0.9,0.2,1.8,0.2,2.5
	c0.3,2.9,1.6,5.7,1.6,5.7l1.3,2l-5.5,1.5c0,0-6.1,1.2-11.4,8c-2.6,3.3-3.7,6-4.2,8c-0.5,2.1-0.9,3.6-0.6,6.1
	c0.3,1.9,3.9,8.2,3.9,8.2s-10.2-3-14.8,0.1s-7.1,4-8.8,7.2s-1.8,5.5-1.8,5.5s-0.3,6.2-0.3,7.1s-3.7-3.1-9.8-3s-10.2,3.1-10.2,3.1
	l-2.4,2.2L11,488l-1.8,3.7v1.9l10.5-4.8l7.5-2.7l10.3-5.6l15.9-10.1l9.9-9.9l17-30.7l20.7-33.4l21.8-30.9l11.3-10.7l15.2-18.4
	l30.3-23.2l26.2-14.8l16.8-7.2l7.6-3.2l15.1-7l15.1-7.4c0,0,5-2.3,10.9-4c7.8-2.3,17.4-4.9,19.9-4.8c4.5,0.3,29.5-1.4,29.5-1.4
	l77.4-3l72.6-0.1c0,0,50.2,3.5,60.5,6.8c10.3,3.2,51.5,8,51.5,8l4.4-0.3c0,0,3.1-1.8,5.2-2.7c1.5-0.6,1.2-0.5,2.9-1.5
	c3-1.7,6.1-3.8,7.2-4.5c1.3-0.8,4.1-2.8,6.7-4.5c2.9-1.9,5-3.9,5.3-4.1c0.2-0.2,2.7-2.3,4.9-4.7c2.5-2.8,4.7-6.2,4.7-6.2
	s4.5-4.9,7.9-10.8c2.9-5,4.7-10.9,4.7-13.3c0-5.2,0-50.4,0-50.4V85.9c0,0,1.7-8.5,2.4-11.5s9.7-32.8,9.7-32.8s12.2-17.9,23.5-21.5
	c11.3-3.6,24.4-9.1,24.4-9.1l16.3-1l18.9,1.5l12.5,3.3L751.6,18.4z"/>
<path id="dino_1_" fill="#6E973F" stroke="#000000" stroke-miterlimit="10" d="M0.9,505.7c0.8-1.7,1.9-4.1,3.1-6.4
	c0.5-0.9,5.8-6.6,6.8-7.1c1.7-0.9,3.5-1.7,4.9-2.2c8-3,20.8-9,20.8-9s25.3-15.3,27-21.3c1.7-6,16.7-30,16.7-30s12.4-21,18.3-30
	c1.6-2.4,5-6.2,6.7-9.2c1.3-2.1,2.7-4.6,4-6.8c2.1-3.6,5.6-7.6,7.1-10.1c0.5-0.9,1.1-1.9,1.9-3c0.8-1.2,3.3-3.9,6.1-6.7
	c4-4.1,8.7-8.8,10.1-10.4c4.5-5.4,8.5-11.6,15.2-17.5c10.2-9,30.5-24.2,30.5-24.2s24.8-14.2,26.8-14.5s42.5-19,42.5-19l16.8-8.2
	l14.2-3.5l13.5-2.2l35.8-1.3l25.5-1.5l44.8-1.2h40h38.2l13.7,1l10.3,0.7l6,1l11,1.9l16.3,2.8l21,3.2c0,0,8.3,1,15.2,2
	c1.1,0.2,2.2,0.3,3.3,0.5c1.8,0.3,3.7,0.7,5.3,1.1c1.3,0.3,5.7,0.2,5.7,0.2l0.7-0.3l5.3-2.4c0,0,12.5-7.7,20.5-12.9
	c3.6-2.4,7.4-6.5,9.1-8.8c2.8-3.9,7.1-9.6,9.9-13.4c1.6-2.2,3.6-7.4,4.2-10c0.6-2.3,1-4.3,1-4.3V85.9c0,0,3.2-16.5,4-18.2
	c0.4-1,2.4-7.8,4-13.8c1.3-4.8,2.5-9,2.5-9s0.6-1.4,1.5-3.2c0.5-1,1.1-2.2,1.7-3.4c0.7-1.3,2.3-3.3,4.1-5.2c2-2.1,4.3-4.3,5.9-5.6
	c2.2-1.8,4.8-3.7,7.4-5.3c2-1.2,15.4-6.4,20.6-8.5c1.5-0.6,2.9-1.2,4.3-1.7c3.1-1.1,12.9-2,16.9-1.9c9,0.4,20.5,1.1,20.5,1.1
	s9.4,2,16.1,4.3c3.7,1.3,8.6,5.4,8.6,5.4l2.5,2l2,2l6,5.8c0,0,5.4,8.3,5,12.3c-0.1,1.3-0.2,2.4-0.2,3.5c0,5,0.7,9.1-3.8,18.5
	c-2.5,5.2-6,9.7-7.4,11.3c-0.1,0.1,0.9-1,0,0c-14.1,15.6-23.5,17.9-29.7,19.8c-16.1,4.8-36.6,1.7-36.6,1.4c0.2-1.2,0,0,0,0v53.8
	l0.2,133.2c0,0-6.7,48.3-10.3,67.6c-0.9,4.8-3.6,11.3-5.2,16.3c-3.1,9.7-8.2,25.4-15.5,33.5c-11,12.2-32,40.2-32,40.2
	s-6.8,12.2-7.8,23c-0.6,5.9-0.8,12.4-0.9,17c-0.1,3.7-0.6,8.9-1,12c-0.3,2.1-0.5,4.5-0.5,6.2c0,4.2,0,25.5,0,25.5s0.8,7.2-6.5,8.5
	s-47.8,0-47.8,0s-6-1-7.8-11.2s-1.8-55-1.8-55s0-9-5.8-9.5s-23.5-0.2-23.5-0.2s-7.2-0.8-9,10c-1.4,8.8-4.4,39.9-4.3,52.2
	c0,2.7,0.8,7.3,0,8.6c-1,1.5-2.6,3-4.1,3.9c-1.2,0.7-4.5,0.1-6.7,0c-11.6-0.6-45.2,0.3-45.2,0.3s-6.2-2.8-6.8-4.8
	c-0.3-1.3-1.4-4.7-2.1-7.4c-0.4-1.5-0.7-6.8-0.7-10.6c0-8.3,0-20.8,0-20.8s2.2-22.5,1.8-23.8s0-6.8-8.5-7.8c-7.3-0.9-29.9-0.2-36,0
	c-1,0-2.6,0.8-3.7,2.1s-2.4,3.2-2.8,5.4c-0.5,3.1-2.1,12.4-3,18.5c-0.4,2.7-0.7,7.3-0.7,9.5c-0.1,9.7-0.2,33.2-0.2,33.2s0,3.8-3,5.2
	s-7.7,2.6-7.7,2.6h-40c0,0-5.4-1-7.1-2.4c-1.7-1.4-3.5-3.2-3.9-4.9c-0.8-3.2-1.8-11.5-1.8-11.5l-0.8-46.8c0,0,1-10.8-3.8-10.8
	c-3.2,0-10.3,0.1-14.7,0.2c-2.2,0-5.3,0.8-7.3,3c-3.3,3.6-8,11.2-9.2,25.5c-2,23-0.8,17.2-0.8,17.2v21c0,0,0.2,8.6-8,9.3
	s-45.8,0-45.8,0s-10.2,0.4-11-19.3c-0.8-19.8,0-6.8,0-6.8l1-22.2l0.6-25.5c0,0-0.4-5.9-1.4-8c-1.8-3.4-5.3-8-11.2-8
	c-6.1,0-11.7,0.4-15,0.7c-1.9,0.2-5,1.1-8.4,2.5c-21.8,9.1-102.7,42.8-112.6,48c-8.4,4.4-22,10.7-32.4,13.9
	c-1.8,0.6-11.7,2.2-12.8,2.3c-4.9,0.3-10.6,0.9-15.1,1.3c-4.2,0.4-10,0.2-13.3-0.8c-3-0.9-6.4-2.2-8.3-3.8
	C0.5,508.9,0.3,507.1,0.9,505.7z"/>
<g id="dentes_1_">
	<path id="dente1_1_" fill="#FBF4DD" stroke="#000000" stroke-miterlimit="10" d="M683.9,62.1l0.9,4.7c0,0-1.1,8.6,0.7,9.4
		c1.8,0.8,5.2,0.3,5.2,0.3s2-0.2,2.8-1.7c0.7-1.5,1.8-8,1.8-8L683.9,62.1z"/>
	<path id="dente2_1_" fill="#FBF4DD" stroke="#000000" stroke-miterlimit="10" d="M694.3,75c0,0,0.9,4.4,1.4,4.9
		c0.6,0.8,3.9,2,4.9,1.2c0.7-0.5,1.6-1.4,1.6-1.4L705,72l-0.1-2.8l-9.8-2.8L694.3,75z"/>
	<path id="dente3_1_" fill="#FBF4DD" stroke="#000000" stroke-miterlimit="10" d="M704.8,77.8c0,0,0.1,3.9,2.5,4.7
		c3.3,1,4.5,1,5.5,0c1.7-1.7,3.2-3.7,3.5-6.2c0.3-2.5,0-4.1,0-4.1l-10.9-2.8L704.8,77.8z"/>
</g>
<path id="narina2_1_" stroke="#000000" stroke-width="0.9855" stroke-miterlimit="10" d="M760.3,56.5c0,0.8-0.6,1.4-1.4,1.4l0,0
	c-0.8,0-1.4-0.6-1.4-1.4v-7.2c0-0.8,0.6-1.4,1.4-1.4l0,0c0.8,0,1.4,0.6,1.4,1.4V56.5z"/>
<path id="narina_1_" stroke="#000000" stroke-width="0.9855" stroke-miterlimit="10" d="M751.6,56.5c0,0.8-0.6,1.4-1.4,1.4l0,0
	c-0.8,0-1.4-0.6-1.4-1.4v-7.2c0-0.8,0.6-1.4,1.4-1.4l0,0c0.8,0,1.4,0.6,1.4,1.4V56.5z"/>
<ellipse id="olho_1_" fill="#FFFFFF" stroke="#000000" stroke-width="1.0664" stroke-miterlimit="10" cx="694.1" cy="37.3" rx="14.2" ry="11.2"/>
<ellipse id="centro_olho_1_" cx="694.1" cy="37.3" rx="7" ry="6"/>
<path fill="#6E973F" stroke="#000000" stroke-miterlimit="10" d="M679.9,60.5c0,0,32.8,13,38.2,13.4s19.3,2.8,20,2.4
	c0.7-0.4,20.7-0.1,20.7-0.1"/>
</svg>
